<svg version="1.2" xmlns="http://www.w3.org/2000/svg" viewBox="0 0 749 690" width="749" height="690">
	<title>New Project</title>
	<style>
		.s0 { fill: #000000 } 
	</style>
	<path id="Social To-Do" fill-rule="evenodd" class="s0" d="m82.4 348q-18.3 0-32-9.6-13.8-10.2-23.5-23.4-9.7-13.8-16.6-24-6.5-10.8-10.1-11.4 1.6-7.8 4.4-12 3.3-4.2 9.3-4.2 7.7 0 13 7.8 5.7 7.8 13.8 21.6 11.3 18 22.2 28.8 11.4 10.2 26.4 10.2 9.3 0 17.8-7.8 8.9-8.4 8.9-23.4 0-14.4-7.7-25.2-7.3-10.8-18.6-21-11-10.2-22.3-21.6-10.9-12-18.6-28.2-7.3-16.2-7.3-39.6 0-30 9.3-56.4 9.7-27 25.1-47.4 15.4-20.4 33.6-31.8 18.2-11.4 35.6-11.4 15.4 0 23.5 16.8 8.5 16.8 8.5 42 0 10.8-4.4 22.8-4.1 12-10.1 24.6-5.7 12.6-10.2 25.8-4 12.6-4 25.2-6.1 0-10.1-7.8-3.7-8.4-3.7-18 0-13.8 4.1-25.2 4.4-12 10.1-22.8 5.7-10.8 9.7-21.6 4.5-10.8 4.5-23.4 0-2.4-2.5-10.2-2-7.8-10.9-7.8-12.1 0-26.7 12-14.6 12-28 31.2-13.3 18.6-21.8 40.2-8.5 21-8.5 39 0 17.4 7.2 30.6 7.3 13.2 17.9 24 10.9 10.2 21.4 20.4 10.6 10.2 17.8 22.2 7.3 12 7.3 28.2 0 21-7.7 34.8-7.7 13.8-19.8 20.4-12.2 6.6-26.3 6.6zm104.9-4.8q-15 0-22.7-14.4-7.3-14.4-7.3-36.6 0-25.2 8.9-55.2 8.1-27 20.7-49.2 12.9-22.2 27.9-35.4 15-13.8 28.8-13.8 16.6 0 24.3 15 7.7 15 7.7 37.8 0 24.6-8.5 52.8-4.5 14.4-13 31.2-8.5 16.8-19.4 32.4-11 15.6-23.5 25.8-12.2 9.6-23.9 9.6zm7.7-12q8.5 0 17-8.4 8.5-9 16.2-21.6 7.7-12.6 13.3-25.2 6.1-13.2 8.9-22.2 6.9-19.2 10.2-36.6 3.2-18 3.2-31.2 0-28.8-14.6-28.8-8.9 0-19 10.8-9.7 10.2-19 27.6-9.4 17.4-16.2 39-14.6 43.2-14.6 70.2 0 21.6 9.3 25.2 1.2 0.6 2.4 1.2 1.2 0 2.9 0zm120.7 16.8q-15.8 0-25.6-12-9.7-12-9.7-37.8 0-18 3.7-37.2 4-19.8 8.1-31.2 8.5-25.2 20.6-46.2 12.2-21 25.5-33.6 13.8-13.2 25.6-13.2 11.7 0 18.2 12 6.5 11.4 6.5 25.2 0 12-4.5 20.4-5.7 11.4-9.7 16.2-4.1 4.8-6.1 4.8-2 0-2-4.2 0-3.6 2-11.4 0.8-3.6 3.2-12.6 2.5-9 4.5-18 2-9 1.6-12-6.1-1.8-17.4 10.2-10.9 11.4-22.7 30.6-11.7 18.6-19.4 39.6-1.6 4.8-5.7 18-4 13.2-7.3 28.8-3.2 15-3.2 28.2 0 10.2 3.2 17.4 3.3 6.6 11 6.6 6.4 0 15.3-4.8 15.4-7.2 28.4-24 13.4-16.8 24.7-35.4 4.1-6.6 7.7-12.6 3.6-6 6.9-12 0.7-1.1 1.1-1.6 2.4-9.9 5.4-19.4 8.5-25.8 16.2-44.4 8.1-19.2 10.5-25.2 2-6 10.5-11.4 8.5-6 14.2-6 4.9 0 4.9 4.8 0 4.2-2.1 7.8-6 14.4-14.1 33-7.7 18-15 38.4-7.3 20.4-12.2 40.2-4.8 19.8-4.8 36.6 0 9 2 14.4 2.4 5.4 8.5 5.4 6.5 0 15-9 8.5-9.6 16.2-21 8.1-12 11.7-18.6 4.1-6.6 7.7-12.6 3.6-5.3 6.5-11 2-5.7 3.6-10 11-25.8 26-49.2 14.9-23.4 31.6-37.8 17-15 32.4-15 8.1 0 15.8 4.2 7.6 3.6 14.9 12.6 3.7 4.2 4.9 8.4 1.6 3.6 1.6 6.6 0 9-5.3 9-3.6 0-5.2-7.2-5.3-20.4-17-20.4-10.1 0-23.1 13.8-13 13.8-25.5 33-13.8 21.6-25.1 46.8-11.4 24.6-17 45-2.9 9-4.1 16.2-0.8 6.6-0.8 11.4 0 10.8 6.1 10.8 6.9 0 20.2-15 9.7-11.4 19.9-27.6 10.5-16.2 19.4-31.8 8.9-16.2 14.2-25.2 2-4.8 3.6-9 2.1-4.2 3.7-7.2 1.6-3 5.2-4.8 4.1-1.8 8.1-1.8 4.9 0 8.1 2.4 3.3 2.4 1.2 8.4 0 0.6-4.4 12.6-4.5 11.4-10.5 27.6-5.7 16.2-10.2 31.2-2.4 8.4-4 15.6-1.6 7.2-1.6 12 0 7.8 4 7.8 2.9 0 8.5-4.8 8.9-6.6 17.8-19.2 9.4-12.6 17.1-25.8 4.4-6.6 8.1-12.6 3.2-5.4 6.2-11.3 0.3-1.3 0.6-2.5 6.5-25.2 15.4-53.4 8.9-28.8 18.3-55.2 9.3-27 17-46.2 15-36.6 27.9-56.4 13-19.8 23.1-27 10.1-7.2 17-6.6-10.5 17.4-23.1 42.6-12.5 25.2-26.7 60.6-17.8 45.6-31.2 82.8-13 37.2-22.3 76.2-5.2 22.8-5.2 37.2 0 20.4 9.3 20.4 7.3 0 16.2-10.8 9.3-10.8 14.6-19.2 8.1-12 14.1-22.2 6.5-10.8 12.6-21.6 1.2-1.8 2-1.8 2.4 0 2.4 5.4 0 3-1.6 5.4-4.4 7.8-8.9 16.2-4 7.8-8.9 15.6-4 7.8-9.3 15.6-4.9 7.2-9.7 13.8-6.9 9.6-16.6 16.8-9.8 7.2-18.3 7.2-7.7 0-12.9-7.2-5.3-7.8-5.3-26.4 0-4.2 0.4-9 0.4-5.4 1.2-11.4 0.9-6.7 2.5-15-4.5 7.8-9.3 15.6-4.5 7.8-9.4 15.6-4.4 7.2-9.3 13.8-17.4 24-32 24-6.5 0-10.9-6.6-4.5-7.2-4.5-22.2 0-11.4 2.9-25.8 0.8-6.6 2.4-13.2 2-6.6 3.6-13.8-8.1 19.2-18.6 38.4-10.1 18.6-21.9 31.2-11.7 12.6-24.7 12.6-13.3 0-18.6-9.6-5.3-9.6-5.3-23.4 0-14.4 3.7-30.3-2.8 4.7-5.7 9.3-6.5 11.4-14.6 23.4-8.1 12-17.4 20.4-9.3 7.8-20.2 7.8-8.9 0-15.4-8.4-6.5-9-6.5-30 0-9 1.2-19.8 0.8-6.2 1.9-12.4-1.2 2-2.3 4-4.4 7.8-8.9 15.6-13.4 22.2-30.4 41.4-16.6 18.6-38.4 18.6zm154.3-246q-4.5 0-7.3-4.2-2.9-4.8-2.9-10.8 0-9 4.1-15 4.4-6.6 9.7-6.6 5.3 0 8.1 5.4 3.2 4.8 2.4 12.6-1.2 7.8-5.2 13.2-3.7 5.4-8.9 5.4zm154.3 169.7q0 0.1 0 0.1 0 0 0-0.1zm0 0.1q0 0 0 0 0 0 0 0zm-591.3 410.4q-6.1-4.8-9.4-13.2-3.2-8.4-3.2-25.8 0-12.6 4.5-26.4 4.8-14.4 10.9-27.6 6.5-13.8 10.9-24.6 19.1-46.2 38.5-93 19.4-46.8 30-87-11 2.4-24.7 4.8-13.8 1.8-28 1.8-16.6 0-21.4-9-4.5-9.6-4.5-20.4 3.7 1.8 9.7 2.4 6.5 0.6 15.4 0.6 9.3 0 21.1-0.6 12.1-0.6 25.9-1.8 2 0 4.9 0 3.2-0.6 6.4-1.2 1.3-3 1.3-7.2 3.2 0 5.2 1.8 2 1.8 3.7 4.8 13.7-2.4 27.9-4.2 14.6-1.8 22.3-1.8 10.1 0 14.2 5.4 4.4 5.4 5.2 13.2 1.2 7.8 1.2 15.6-2.4-3-13.3-6-11-3-31.6-3-5.3 0-11 0.6-5.6 0-12.1 0.6v9q0 9.6-5.7 28.8-5.6 18.6-14.1 41.4-8.1 22.2-16.2 42.6-8.1 19.8-13 31.2-7.7 16.8-16.2 39-8.1 21.6-15.4 42.6-7.7 21.6-13.4 40.2-5.2 18-6 26.4zm114.6-3q-15 0-22.7-14.4-7.3-14.4-7.3-36.6 0-25.2 8.9-55.2 8.1-27 20.7-49.2 12.9-22.2 27.9-35.4 15-13.8 28.8-13.8 16.6 0 24.3 15 7.7 15 7.7 37.8 0 24.6-8.5 52.8-4.5 14.4-13 31.2-8.5 16.8-19.4 32.4-11 15.6-23.5 25.8-12.2 9.6-23.9 9.6zm7.7-12q8.5 0 17-8.4 8.5-9 16.2-21.6 7.7-12.6 13.3-25.2 6.1-13.2 9-22.2 6.8-19.2 10.1-36.6 3.2-18 3.2-31.2 0-28.8-14.6-28.8-8.9 0-19 10.8-9.7 10.2-19 27.6-9.3 17.4-16.2 39-14.6 43.2-14.6 70.2 0 21.6 9.3 25.2 1.2 0.6 2.4 1.2 1.3 0 2.9 0zm202.9-102.6q-1.2-2.4-7.3-4.8-6.1-3-18.2-3-3.3 0-7.3 0-4.1 0-8.5 1.2-4.1 0-13 1.8-8.9 1.2-18.6 2.4-9.7 1.2-17.4 1.2-10.2 0-13-7.8-2.4-8.4-2.4-18 6.9 1.8 17.4 1.8 12.1 0 26.3-1.2 14.2-1.2 26.7-2.4 12.6-1.2 19.1 0 11.7 1.2 13.7 10.2 2.5 9 2.5 18.6zm61.5 125.4q-8.9 0-15.4-3-6.4-3.6-9.7-11.4-5.2 0-10.1-6.6-4.5-6.6-4.5-22.2 0-25.8 12.6-54.6 13-28.8 30.4-72 4-10.2 10.9-24.6 7.3-15 14.6-31.8 7.7-16.8 13.4-33 6-16.8 8.1-29.4-4.1 0.6-9.4 2.4-4.8 1.2-8.9 1.8-1.6 0.6-2.8 0.6-1.2 0-2.4 0-7.7 0-10.2-4.2-2.4-4.2-2.4-9.6 0-5.4 0-8.4 14.2-1.8 31.2-7.2 21.9-6 43.3-15 21.9-9 45-9 25.1 0 39.3 15.6 14.1 15.6 14.1 51.6 0 28.8-8.9 61.8-8.9 33-23.9 65.4-14.9 32.4-34 60-19 27.6-39.7 45.6-11.3 10.2-25.5 18.6-14.2 8.4-28.7 13.8-14.2 4.8-26.4 4.8zm0.4-16.8q22.7 0 43-14.4 20.6-15 38.4-38.4 17.9-23.4 31.6-49.8 8.1-15 17.9-36 9.7-21.6 18.6-44.4 8.9-23.4 14.6-44.4 6-21.6 6-36.6 0-13.8-4.4-21.6-4.5-7.8-16.2-7.8-8.5 0-23.9 3-15 3-31.6 7.2-16.6 3.6-29.6 7.2 2.1 4.8 2.1 10.8 0 12.6-5.7 31.2-5.3 18.6-13.4 38.4-7.7 19.8-15.4 37.2-7.3 17.4-11.7 27.6-10.1 22.2-20.7 48.6-10.1 26.4-16.2 52.8-1.6 6.6-1.6 13.2 0 7.8 4.1 12 4 4.2 14.1 4.2zm193.2 6q-15 0-22.7-14.4-7.2-14.4-7.2-36.6 0-25.2 8.9-55.2 8.1-27 20.6-49.2 13-22.2 28-35.4 15-13.8 28.7-13.8 16.6 0 24.3 15 7.7 15 7.7 37.8 0 24.6-8.5 52.8-4.4 14.4-12.9 31.2-8.6 16.8-19.5 32.4-10.9 15.6-23.5 25.8-12.1 9.6-23.9 9.6zm7.7-12q8.5 0 17-8.4 8.5-9 16.2-21.6 7.7-12.6 13.4-25.2 6.1-13.2 8.9-22.2 6.9-19.2 10.1-36.6 3.3-18 3.3-31.2 0-28.8-14.6-28.8-8.9 0-19 10.8-9.8 10.2-19.1 27.6-9.3 17.4-16.2 39-14.6 43.2-14.6 70.2 0 21.6 9.4 25.2 1.2 0.6 2.4 1.2 1.2 0 2.8 0z"/>
</svg>